<?xml version="1.0" encoding="UTF-8" standalone="no"?>
<!-- Created with Inkscape (http://www.inkscape.org/) -->

<svg
   xmlns:dc="http://purl.org/dc/elements/1.1/"
   xmlns:cc="http://creativecommons.org/ns#"
   xmlns:rdf="http://www.w3.org/1999/02/22-rdf-syntax-ns#"
   xmlns:svg="http://www.w3.org/2000/svg"
   xmlns="http://www.w3.org/2000/svg"
   xmlns:sodipodi="http://sodipodi.sourceforge.net/DTD/sodipodi-0.dtd"
   xmlns:inkscape="http://www.inkscape.org/namespaces/inkscape"
   width="205.75389mm"
   height="128.09003mm"
   viewBox="0 0 205.75389 128.09003"
   version="1.1"
   id="svg8"
   inkscape:version="0.92.4 5da689c313, 2019-01-14"
   sodipodi:docname="mountains.svg">
  <defs
     id="defs2">
    <inkscape:path-effect
       effect="bspline"
       id="path-effect4607"
       is_visible="true"
       weight="33.333333"
       steps="2"
       helper_size="0"
       apply_no_weight="true"
       apply_with_weight="true"
       only_selected="false" />
    <inkscape:path-effect
       effect="bspline"
       id="path-effect4597"
       is_visible="true"
       weight="33.333333"
       steps="2"
       helper_size="0"
       apply_no_weight="true"
       apply_with_weight="true"
       only_selected="false" />
    <inkscape:path-effect
       effect="bspline"
       id="path-effect4572"
       is_visible="true"
       weight="33.333333"
       steps="2"
       helper_size="0"
       apply_no_weight="true"
       apply_with_weight="true"
       only_selected="false" />
    <inkscape:path-effect
       effect="bspline"
       id="path-effect4554"
       is_visible="true"
       weight="33.333333"
       steps="2"
       helper_size="0"
       apply_no_weight="true"
       apply_with_weight="true"
       only_selected="false" />
    <inkscape:path-effect
       effect="bspline"
       id="path-effect4548"
       is_visible="true"
       weight="33.333333"
       steps="2"
       helper_size="0"
       apply_no_weight="true"
       apply_with_weight="true"
       only_selected="false" />
    <inkscape:path-effect
       effect="bspline"
       id="path-effect4536"
       is_visible="true"
       weight="33.333333"
       steps="2"
       helper_size="0"
       apply_no_weight="true"
       apply_with_weight="true"
       only_selected="false" />
    <inkscape:path-effect
       effect="bspline"
       id="path-effect4530"
       is_visible="true"
       weight="33.333333"
       steps="2"
       helper_size="0"
       apply_no_weight="true"
       apply_with_weight="true"
       only_selected="false" />
    <inkscape:path-effect
       effect="bspline"
       id="path-effect4526"
       is_visible="true"
       weight="33.333333"
       steps="2"
       helper_size="0"
       apply_no_weight="true"
       apply_with_weight="true"
       only_selected="false" />
    <inkscape:path-effect
       effect="bspline"
       id="path-effect3717"
       is_visible="true"
       weight="33.333333"
       steps="2"
       helper_size="0"
       apply_no_weight="true"
       apply_with_weight="true"
       only_selected="false" />
  </defs>
  <sodipodi:namedview
     id="base"
     pagecolor="#ffffff"
     bordercolor="#666666"
     borderopacity="1.0"
     inkscape:pageopacity="0.0"
     inkscape:pageshadow="2"
     inkscape:zoom="0.24748737"
     inkscape:cx="244.06193"
     inkscape:cy="402.3275"
     inkscape:document-units="mm"
     inkscape:current-layer="layer1"
     showgrid="false"
     inkscape:snap-global="false"
     inkscape:window-width="1020"
     inkscape:window-height="744"
     inkscape:window-x="0"
     inkscape:window-y="20"
     inkscape:window-maximized="0" />
  <metadata
     id="metadata5">
    <rdf:RDF>
      <cc:Work
         rdf:about="">
        <dc:format>image/svg+xml</dc:format>
        <dc:type
           rdf:resource="http://purl.org/dc/dcmitype/StillImage" />
        <dc:title></dc:title>
      </cc:Work>
    </rdf:RDF>
  </metadata>
  <g
     inkscape:label="Layer 1"
     inkscape:groupmode="layer"
     id="layer1"
     transform="translate(-3.8541682,-89.084026)">
    <path
       style="fill:#70ce76;fill-opacity:1;stroke-width:1.01015258"
       d="m 579.11417,433.24826 c -6.93076,-4.8302 -13.74087,-23.5971 -21.06133,-53.74203 -4.74916,-19.55655 -7.2362,-33.01721 -7.73211,-38.09955 -0.55109,-5.64786 -2.43929,-6.98154 11.65013,0.26514 8.77996,4.51584 16.34843,16.47376 34.30989,41.76256 6.07245,8.5497 14.08228,18.82513 17.79963,22.83429 9.84859,10.62172 17.34956,14.50625 4.94722,23.12278 -4.00488,2.78239 -9.57475,4.36216 -24.70396,5.16805 -10.918,0.58157 -12.42847,0.45135 -15.20947,-1.31124 z"
       id="path4538"
       inkscape:connector-curvature="0"
       transform="scale(0.26458333)"
       sodipodi:nodetypes="csssssssc" />
    <path
       style="fill:#70ce76;fill-opacity:1;stroke-width:1.01015258"
       d=""
       id="path4540"
       inkscape:connector-curvature="0"
       transform="scale(0.26458333)" />
    <path
       style="fill:#70ce76;fill-opacity:1;stroke-width:0.26726952"
       d="m 201.51975,170.45523 c -0.85158,-0.43188 -2.59551,-1.59481 -3.87541,-2.58429 -3.10929,-2.40376 -23.77559,-22.92709 -24.32073,-24.15246 -0.33327,-0.74914 -0.4563,-2.66542 -0.61773,-9.6217 -0.22717,-9.78889 -0.49472,-12.28791 -2.25341,-21.04798 -1.36713,-6.80966 -1.4327,-7.54986 -0.66875,-7.54986 0.82165,0 2.21875,1.39481 5.66817,5.65891 3.89133,4.81038 5.88605,6.67619 8.45751,7.91095 2.93455,1.40911 5.40678,1.47543 11.82829,0.31729 4.40101,-0.79373 5.06453,-0.85272 6.61132,-0.58777 3.14576,0.53885 5.38235,2.57522 6.33736,5.77004 0.63277,2.11681 0.91852,8.13698 0.92166,19.41739 0.003,10.67404 -0.25795,16.39028 -0.92938,20.36059 -1.06665,6.30741 -3.19177,8.12083 -7.1589,6.10889 z"
       id="path4550"
       inkscape:connector-curvature="0" />
    <path
       style="fill:#4b8055;fill-opacity:1;stroke-width:0.37797621"
       d="m 46.658915,185.287 c -3.252388,-0.86987 -11.40152,-4.72467 -15.343356,-7.25789 -3.284101,-2.11053 -5.2401,-3.79883 -6.644126,-5.73483 -1.692664,-2.33399 -1.498204,-3.93929 1.076393,-8.88578 l 1.978418,-4.05518 0.08379,-8.32289 c 0.0626,-6.21797 0.128992,-8.76991 -0.242115,-10.33494 -0.741516,-3.12713 -0.167415,-4.57929 0.751727,-7.01284 1.2098,-3.2031 5.528071,-8.05019 9.608126,-12.0051 3.204581,-3.10628 6.316248,-5.74656 6.993249,-5.64295 l 0.603965,0.0924 -0.0646,4.25223 c -0.03634,2.39165 -2.280359,7.08482 -3.470056,12.7567 -3.615454,17.23666 -3.229552,20.14502 3.209898,31.60489 6.974342,12.41179 8.94936,18.1988 7.410572,20.30322 -0.7259,0.99272 -2.827686,1.07851 -5.951884,0.24292 z"
       id="path4556"
       inkscape:connector-curvature="0"
       sodipodi:nodetypes="cssscssssscsssscc" />
    <path
       style="fill:#4b8055;fill-opacity:1;stroke-width:1.42857146"
       d="m 322.75124,683.8062 c -2.35714,-1.04764 -5.68932,-3.4332 -7.40484,-5.30123 -8.80867,-9.5918 -10.51523,-23.50147 -1.41542,-63.75357 8.97081,-39.6815 6.7259,-49.99663 1.53891,-74.41577 l -3.44144,-16.20148 1.90978,-9.15566 c 1.07175,-5.13811 6.16044,-10.36995 6.99062,-12.72709 0.83018,-2.35714 2.01848,-5.57143 2.64065,-7.14286 0.66167,-1.67118 4.38565,5.1163 4.4422,14.84219 0.10943,18.81922 -1.27574,27.40649 7.59401,63.01496 11.78289,47.30351 13.96419,60.7489 14.13262,79.28571 0.17589,19.35774 -1.53924,24.32046 -10.48987,30.35229 -5.39284,3.63423 -10.23227,3.98698 -16.49722,1.20251 z"
       id="path4574"
       inkscape:connector-curvature="0"
       transform="scale(0.26458333)"
       sodipodi:nodetypes="ccsscsscssssc" />
    <path
       style="fill:#4b8055;fill-opacity:1;stroke-width:0.26726952"
       d="m 124.64536,189.10817 c -3.93967,-0.82778 -4.50696,-2.05188 -4.89243,-10.55702 -0.1399,-3.08697 -0.5697,-8.31255 -0.72411,-11.72789 -0.66714,-14.75591 -2.4153,-23.70476 -6.85919,-33.63163 -0.72966,-1.62993 -1.27557,-2.31032 -0.80882,-2.60577 0.50283,-0.3183 0.64067,0.71191 1.78976,2.69296 4.43201,7.64088 6.32478,10.25995 12.35842,18.41174 5.78885,7.82107 8.4651,11.3245 10.8376,17.14054 1.92588,4.72118 2.72447,8.37354 2.76182,11.99184 0.0303,2.93536 -0.004,3.13789 -0.76,4.50296 -0.83815,1.51318 -2.10206,2.54218 -4.15276,3.38093 -1.37094,0.56072 -7.5549,0.82059 -9.55029,0.40134 z"
       id="path4599"
       inkscape:connector-curvature="0"
       sodipodi:nodetypes="ccssscsssccc" />
    <path
       style="fill:#4b8055;fill-opacity:1;stroke-width:0.26726952"
       d="m 162.37017,168.05162 c -0.42856,-0.35445 -0.68394,-0.97474 -0.86708,-2.10604 -0.3375,-2.08479 -0.33474,-17.00459 0.004,-23.51972 0.60076,-11.54289 1.2766,-16.02019 3.15447,-17.25063 0.35294,-0.23125 0.77447,-0.80692 1.02131,-1.3271 0.52885,-1.11446 0.34385,-1.69813 -0.81891,-5.33318 -0.445,-1.39113 -0.47835,-3.08656 -0.47835,-3.7676 0,-1.10419 2.12189,-6.79421 1.87119,-6.54882 -0.0547,0.0535 0.38222,1.51892 0.20945,2.96649 -0.30988,2.59689 -0.39602,2.4964 0.53239,6.45202 1.19141,5.07624 1.21249,7.49468 1.98171,12.64805 1.88061,12.5991 2.98236,36.04252 1.75494,36.97049 -0.32607,0.74487 -1.2497,0.97432 -4.64475,1.15385 -2.79817,0.14796 -3.17471,0.11377 -3.72071,-0.33781 z"
       id="path4609"
       inkscape:connector-curvature="0"
       sodipodi:nodetypes="ccccccssccscccc" />
    <path
       style="fill:#70ce76;fill-opacity:1;stroke-width:0.09449405"
       d="m 110.48146,148.50121 c -0.4738,-0.35078 -1.15187,-1.06069 -3.03577,-3.1783 -2.88845,-2.6874 -4.36748,-4.55882 -8.675033,-7.94077 -4.516303,-3.54586 -5.748481,-4.75297 -6.624064,-6.48928 -0.449786,-0.89194 -0.704728,-1.78188 -1.085145,-4.04354 -0.444488,-2.64257 -0.991944,-3.6237 -1.413387,-7.18155 -0.644896,-1.31787 -0.813104,-3.19754 -0.893484,-3.58312 -0.151353,-0.72604 -0.208108,-1.57947 -0.111467,-1.67611 -1.566857,-1.3397 3.970748,2.90178 7.245485,6.21211 1.221335,1.23461 2.369436,2.33304 2.551342,2.44097 0.3719,0.22064 0.87718,0.24999 1.607523,0.0934 0.91734,-0.19673 1.12379,-0.0344 3.24793,3.03803 1.72258,2.49161 2.04464,2.91527 2.14839,3.99965 0.23932,0.55108 0.28932,0.96046 0.58815,1.52372 1.61869,3.05109 2.15809,4.50388 2.96017,6.93441 1.62443,4.92256 2.58617,9.88369 1.95668,10.09352 -0.0527,0.0176 -0.26299,-0.0918 -0.46732,-0.2431 z"
       id="path4632"
       inkscape:connector-curvature="0"
       sodipodi:nodetypes="cccsscccsccccccccc" />
    <path
       style="fill:#70ce76;fill-opacity:1;stroke-width:0.13363476"
       d="m 82.772525,147.47925 c -0.293997,-0.13398 -0.925419,-0.55559 -1.403164,-0.93693 -0.913773,-0.72937 -6.519228,-5.99316 -8.364252,-7.85442 -1.301941,-1.3134 -1.801902,-2.2162 -3.059917,-5.52537 -1.233384,-3.24438 -2.023583,-4.78864 -3.145533,-6.1472 -2.412696,-2.92151 -2.360978,-2.76532 -1.754127,-5.29748 0.558562,-2.33065 0.688602,-3.55086 0.688335,-6.45887 -2.65e-4,-3.59761 -0.383445,-8.30506 -1.422008,-17.472675 -0.201695,-1.780386 -0.330624,-3.27316 -0.28651,-3.317272 0.149249,-0.149251 1.504088,0.595048 2.207236,1.212578 1.918444,1.68484 3.862443,4.859939 9.675514,15.802849 3.383076,6.36853 3.978857,7.45821 5.970719,10.92047 2.39354,4.16046 2.966138,5.54054 2.964109,7.14413 -0.0013,1.1264 -0.445011,2.74244 -1.273336,4.63889 -1.129737,2.58653 -1.131153,3.86711 -1.131153,4.50125 0,0.31597 -0.130349,1.34387 0.200333,2.44753 1.082312,3.61231 1.413462,5.89455 0.926017,6.38199 -0.115498,0.1155 -0.220734,0.20868 -0.233859,0.20706 -0.01312,-0.002 -0.264407,-0.11255 -0.558404,-0.24653 z"
       id="path4634"
       inkscape:connector-curvature="0"
       sodipodi:nodetypes="scssscccccsscsscccs" />
    <path
       style="fill:#659c68;fill-opacity:1;stroke-width:1.01015258"
       d="M 353.7769,819.7996 C 262.48537,815.97766 179.64801,802.64497 124.63488,782.91915 108.65008,777.18754 82.249079,764.29716 70.934184,756.69958 34.460658,732.20881 16.256042,702.96876 14.677152,666.34018 13.175295,631.49867 27.087961,598.64562 52.380466,577.30841 56.75138,573.62103 64.523814,567.1404 69.65254,562.90699 80.343636,554.08225 87.505257,545.08264 96.604738,529.03766 l 6.332082,-11.16527 1.82353,10.63871 c 1.58486,9.24621 1.75302,14.6986 1.28478,41.65646 l -0.53876,31.01778 -7.797747,15.7681 c -11.397664,23.04763 -11.334478,27.19376 0.60599,39.76396 8.855877,9.32293 22.602027,18.48607 42.915477,28.60729 25.82937,12.86954 41.48797,18.13783 50.79268,17.08906 6.19163,-0.6979 8.21094,-3.2804 8.21094,-10.50102 0,-10.36237 -7.83657,-27.84025 -27.32076,-63.95835 -18.25388,-33.83746 -23.5161,-45.02514 -23.50892,-65.65991 0.007,-20.39762 6.53438,-57.08399 15.33534,-84.34774 4.71443,-14.60438 6.52619,-17.27126 6.95847,-27.66462 l 0.35213,-10.61832 -1.7549,-0.17178 c -5.77568,2.72753 -0.52703,-3.10588 0.22624,-3.6501 6.73585,-7.11853 14.17758,-16.3596 30.37161,-37.7152 22.85362,-30.13783 31.24472,-35.78319 37.4699,-39.47817 6.71534,-3.98593 3.74644,-2.97341 7.26269,32.42507 3.17669,31.98004 4.23344,58.89746 0.74323,66.48021 -2.56955,10.47295 -2.34705,11.59476 3.94793,19.90383 6.91705,7.58736 8.96293,13.16997 14.61048,27.42825 2.27357,5.74006 5.34716,12.20739 6.8302,14.37186 3.11042,4.53959 33.17012,33.00855 38.75618,36.70523 2.06294,1.36519 4.23162,2.18501 4.81926,1.82182 1.80974,-1.11848 1.19097,-8.78173 -1.51615,-18.77719 -4.32422,-15.9662 -4.31605,-16.18201 1.10884,-29.27557 3.69748,-8.92428 4.90417,-13.205 5.25817,-18.65334 0.44776,-6.8914 0.3563,-7.85444 -5.66461,-17.48064 -8.58273,-13.72204 -4.27072,-10.51274 -2.73018,-12.86389 0.88447,-1.34987 3.41835,-6.56792 5.63085,-11.59567 4.77675,-10.85481 7.46699,-14.74247 11.00834,-15.90809 9.72301,-4.9871 5.40256,-1.26854 10.46972,20.24624 2.64636,11.2362 5.30021,23.83872 5.89748,28.0056 2.13549,14.89878 5.24198,18.97077 29.32672,38.44148 15.75793,12.73911 22.78395,19.31266 36.03715,33.71641 10.6359,11.55923 11.51858,11.09159 8.44719,-4.47529 -2.95838,-14.99408 -8.49453,-31.78806 -14.31969,-43.43894 -2.6389,-5.27804 -5.10909,-11.02986 -5.48933,-12.78181 l -0.69131,-3.18536 4.30641,2.13064 c 3.09511,1.53134 6.22334,2.13064 11.12143,2.13064 h 6.81504 l 5.5832,13.27165 c 17.04975,40.52831 22.26548,69.5904 25.32746,140.86575 2.63868,61.42199 3.433,60.4035 21.26907,66.78433 6.75913,-1.80826 26.59015,0.50177 32.93013,-1.18127 5.72808,-1.52061 13.14617,-7.02258 16.76111,-12.43167 2.58997,-5.00949 3.283,-5.12727 3.283,-16.34894 0,-17.03119 -3.21903,-29.90801 -12.86671,-51.46966 -8.42022,-18.8184 -16.35338,-30.9114 -43.23486,-66.77818 -10.09624,-13.47097 -20.80013,-28.45395 -24.22292,-33.732 -7.44442,-11.47951 -24.04876,-39.47484 -23.56104,-39.72448 0.18968,-0.0971 3.75416,-1.8785 7.92104,-3.95868 10.50624,-5.24488 19.15056,-12.01947 30.88074,-24.20136 19.13757,-19.87454 30.65945,-37.29541 49.97229,-75.55714 18.46827,-36.5885 24.16375,-47.73765 33.37699,-50.54986 8.52525,-2.60222 6.91154,-4.52177 6.75728,3.00995 0.0625,2.74342 2.23242,14.44856 4.82206,26.01143 7.73315,34.52893 14.65492,55.12319 20.99025,62.4521 4.00611,4.63439 8.13164,5.25996 24.08244,3.65177 11.68493,-1.17811 18.06571,-3.97892 20.33205,-7.16583 5.74902,-8.08422 1.55004,-0.76279 1.034,4.23712 -0.44999,4.35994 0.0874,7.94272 2.48318,16.55637 1.68158,6.04582 3.33767,12.23864 3.6802,13.76181 0.78198,3.47732 -1.33766,8.57858 -4.93539,11.8778 -7.46497,6.84558 -10.15136,22.12785 -12.47975,65.69055 -1.22112,22.84654 -1.42154,76.94852 -0.21327,86.33165 0.75234,5.84265 1.39164,7.47978 3.69429,9.46044 2.66586,2.29308 3.03896,1.65158 12.7682,0.99415 5.58923,-0.3777 12.03165,-0.4115 14.09822,-0.94815 5.76793,-1.49784 6.22271,-4.46685 5.47827,-35.76465 -1.35289,-56.87751 -6.60254,-109.80408 -14.47811,-145.96704 -5.05822,-23.22624 -5.1968,-24.38098 -4.16802,-34.72943 l 0.64797,-9.39077 4.9926,-4.11458 c 2.70955,-2.23304 5.15398,-4.01426 5.39531,-4.29315 3.94026,-4.55357 0.99146,2.1592 1.38363,4.79822 0.39218,2.63903 2.33328,14.15156 4.69808,25.50636 5.87462,28.20755 7.59136,41.24655 7.90178,77.41832 0.14855,17.30954 1.45698,32.59438 1.98579,33.98527 1.18884,3.12689 42.97334,45.78652 70.57838,72.05656 35.86044,34.12622 48.9891,39.84571 57.90414,25.22595 2.6315,-4.3154 2.48004,-1.69382 -0.60534,10.47794 C 763.97631,723.59509 712.82222,770.6428 624.40586,795.63066 556.07081,814.94322 454.48294,824.0157 353.7769,819.7996 Z M 337.4978,683.57228 c 10.26482,-5.23671 12.78349,-12.69313 11.96263,-35.41485 -0.62127,-17.19693 -1.98968,-24.65366 -12.88371,-70.2056 -9.41591,-39.37133 -10.75102,-47.04751 -11.68995,-67.21096 -0.38971,-8.36896 -1.0263,-14.85289 -1.41465,-14.40876 -0.38835,0.44413 -3.11073,6.86583 -6.04971,14.27044 l -5.34361,13.46292 3.67914,11.79089 c 8.19215,26.25418 8.5586,38.01606 2.12971,68.35944 -6.86465,32.40021 -8.70112,43.39686 -8.87193,53.12448 -0.15731,8.95921 0.0593,10.13695 2.87893,15.65737 2.4579,4.81213 4.11189,6.60591 8.53135,9.25243 6.42629,3.84828 11.36981,4.23115 17.0718,1.3222 z"
       id="path4638"
       inkscape:connector-curvature="0"
       transform="scale(0.26458333)"
       sodipodi:nodetypes="ssssscsccscssscssccscccsssccscscsssscscscssscccssccscccssssccssscsscsscssscsccssscsscsscssssscssssscssscsc" />
  </g>
</svg>
